<svg width="48" height="48" viewBox="0 0 48 48" fill="none" xmlns="http://www.w3.org/2000/svg">
<circle cx="24" cy="24" r="4" fill="black"/>
<path d="M31.7782 16.2218C32.7996 17.2433 33.6099 18.4559 34.1627 19.7905C34.7155 21.1251 35 22.5555 35 24C35 25.4445 34.7155 26.8749 34.1627 28.2095C33.6099 29.5441 32.7996 30.7567 31.7782 31.7782" stroke="black" stroke-width="2"/>
<path d="M16.2218 31.7782C15.2004 30.7567 14.3901 29.5441 13.8373 28.2095C13.2845 26.8749 13 25.4445 13 24C13 22.5555 13.2845 21.1251 13.8373 19.7905C14.3901 18.4559 15.2004 17.2433 16.2218 16.2218" stroke="black" stroke-width="2"/>
<path d="M37.435 10.565C39.1993 12.3293 40.5989 14.4238 41.5537 16.729C42.5086 19.0342 43 21.5049 43 24C43 26.4951 42.5086 28.9658 41.5537 31.271C40.5989 33.5762 39.1993 35.6707 37.435 37.435" stroke="black" stroke-width="2"/>
<path d="M10.565 37.435C8.80066 35.6707 7.40113 33.5762 6.44629 31.271C5.49145 28.9658 5 26.4951 5 24C5 21.5049 5.49145 19.0342 6.44629 16.729C7.40113 14.4238 8.80066 12.3293 10.565 10.565" stroke="black" stroke-width="2"/>
</svg>
